<mxfile host="app.diagrams.net" modified="2023-08-21T08:03:15.161Z" agent="Mozilla/5.0 (Windows NT 10.0; Win64; x64) AppleWebKit/537.36 (KHTML, like Gecko) Chrome/116.0.0.0 Safari/537.36" version="21.6.8" etag="23i6kKhuPwz8VDFCPSiN" type="github">
  <diagram name="페이지-1" id="Vbcd4uXWQFw0LvEC6VcA">
    <mxGraphModel>
      <root>
        <mxCell id="0" />
        <mxCell id="1" parent="0" />
      </root>
    </mxGraphModel>
  </diagram>
</mxfile>
